# xmcd CD database file
#
# Track frame offsets:
#	150
#	32967
#	68700
#
# Disc length: 1351 seconds
#
# Revision: 0
# Processed by: cddbd v1.5.1PL2 Copyright (c) Steve Scherf et al.
# Submitted via: CDex 1.51
#
DISCID=22054503
DTITLE=R9 - trast
DYEAR=1900
DGENRE=Trance
TTITLE0=trast(original mix)
TTITLE1=trast(gaball remix)
TTITLE2=trast(TV mix)
EXTD=
EXTT0=
EXTT1=
EXTT2=
PLAYORDER=
